# xmcd CD database file
#
# Track frame offsets:
#	150
#	18242
#	38385
#
# Disc length: 751 seconds
#
# Revision: 0
# Processed by: cddbd v1.5PL3 Copyright (c) Steve Scherf et al.
# Submitted via: CDex 1.50beta9
#
DISCID=1202ed03
DTITLE=中森明菜 - とまどい
DYEAR=1998
DGENRE=JPop
TTITLE0=とまどい
TTITLE1=Good-bye My Tears
TTITLE2=とまどい(Instrumental)
EXTD=YEAR: 1998
EXTT0=
EXTT1=
EXTT2=
PLAYORDER=
